<?xml version="1.0" encoding="utf-8"?>
<!-- Generator: Adobe Illustrator 19.1.0, SVG Export Plug-In . SVG Version: 6.00 Build 0)  -->
<svg version="1.1" id="Layer_1" xmlns="http://www.w3.org/2000/svg" xmlns:xlink="http://www.w3.org/1999/xlink" x="0px" y="0px"
	 viewBox="0 0 221.5 52" style="enable-background:new 0 0 221.5 52;" xml:space="preserve">
<style type="text/css">
	.st0{fill:#EC2227;}
	.st1{fill:#010101;}
</style>
<g>
	<g>
		<g>
			<polyline class="st0" points="203.1,44.4 204.4,44.4 204.4,42.8 203.1,44.4 			"/>
			<path class="st0" d="M219.9,35.3c0.1-1.1,0.1-2.6-0.1-3.8l0,0c-0.4,1.7-1.4,3.9-3.8,5.8l0,0c2-2.2,3.3-4.9,3.4-7.6
				c-0.4-1.5-1-3-1.7-4.3l0,0c0.4,2.8-0.2,6.5-3,9.5l0,0c2.3-3.4,3-7.5,1.9-11.1c-3.1-4.2-8.1-6.9-13.8-6.9
				c-5.6,0-10.6,2.7-13.8,6.9c-1,3.7-0.4,7.8,1.9,11.1l0,0c-2.7-3-3.4-6.7-3-9.5l0,0c-0.8,1.3-1.4,2.8-1.7,4.3
				c0.2,2.8,1.4,5.5,3.5,7.6l0,0c-2.3-1.8-3.4-4.1-3.8-5.8l0,0c-0.2,1.1-0.2,2.7-0.1,3.8c0.6,1.8,1.8,3.4,3.1,4.5c0,0,0,0.1,0,0
				c-1.4-0.9-2.2-1.8-2.8-2.6l0,0c1.6,7.7,8.5,13.6,16.7,13.6c8.3,0,15.2-5.9,16.7-13.6l0,0c-0.5,0.8-1.4,1.6-2.8,2.6l0,0
				C218.1,38.7,219.2,37.2,219.9,35.3 M196.4,46.4c-0.6,0-1.2-0.1-1.6-0.2l0.4-1c1.1,0.1,2,0,2.3-0.9l1.1-3h2.3l-1.3,3.2
				C199.1,46.3,197.6,46.4,196.4,46.4z M204.4,46.3v-1h-2.1l-0.8,1h-1.9l3.9-4.5c0.2-0.2,0.5-0.4,0.7-0.4h2.1l0.5,4.9H204.4z
				 M212.8,46.3h-5.3l1.9-4.9h2.3l-1.5,3.9h3L212.8,46.3z M210.6,35.9c-3.5,3.4-8.7,1.2-8.2-3c0.4-3.2,4.4-6.4,7.4-8.2l0,0
				c-0.4-0.4-1.2-1.2-1.7-1.9c-1.5-1.8-4-1.8-5.5,0.1l-8.6,0.8v0.1l9.2,0.5c1.6,0.1,2.2,1.6,0.6,2.8c-5.9,4.5-6.9,9.1-5.6,12.9l0,0
				c-0.5-0.8-0.9-1.7-1.2-2.7c-2.8-1.8-5.1-5.1-5.1-9.3c0-6,4.9-11,11-11s11,5,11,11C213.9,31.3,212.4,34.2,210.6,35.9z"/>
		</g>
	</g>
	<g>
		<g>
			<g>
				<polyline class="st1" points="60.5,39.8 66.2,24.8 57,24.8 49.8,43.8 70.3,43.8 71.9,39.8 60.5,39.8 				"/>
				<path class="st1" d="M16,24.8l-4.4,11.5c-1.4,3.6-5,4-9.1,3.5l-1.6,4c1.8,0.4,3.9,0.6,6.3,0.6c4.4,0,10.5-0.5,13-7l4.9-12.7
					L16,24.8"/>
				<path class="st1" d="M45.5,24.8h-8.1c-1,0-2.1,0.6-2.8,1.4L19.4,43.8h7.5l3-3.8h8.2l0.1,3.8h9.1L45.5,24.8 M33,36.4l4.9-6.1
					l0.2,6.1H33z"/>
				<polyline class="st1" points="148.9,24.8 125.8,24.8 124.3,28.4 131.4,28.4 125.4,43.8 134.6,43.8 140.4,28.4 147.4,28.4 
					148.9,24.8 				"/>
				<polyline class="st1" points="164.6,35.7 161.4,43.8 152.4,43.8 155.4,35.7 150.1,24.8 159.2,24.8 162.4,31.7 170.6,24.8 
					178.1,24.8 164.6,35.7 				"/>
				<polyline class="st1" points="115.4,43.8 106.4,43.8 113.8,24.8 122.8,24.8 115.4,43.8 				"/>
				<path class="st1" d="M96.7,36.6c-1.1,2.1-3,3.5-5.7,3.5c-3,0-4.1-2.1-2.7-5.9c1.5-3.8,4.2-5.9,7.2-5.9c2.6,0,3.4,1.4,3,3.5h9.1
					c0.8-4.6-3-7.5-10.5-7.5c-8.5,0-15.6,4.1-17.8,9.9c-2.4,6.2,1.5,10.3,10,10.3c7.6,0,13.7-3.3,16.4-7.9H96.7"/>
			</g>
		</g>
		<g>
			<path class="st1" d="M85.3,14.3h-4V9.2H76v5.1h-4V1.9h4v4.8h5.3V1.9h4V14.3z"/>
			<path class="st1" d="M89.1,12.7c-1.2-1.3-1.8-2.9-1.8-4.4c0-3.3,2.3-6.4,7.3-6.4c2.3,0,4.1,0.5,5.5,1.9c1.2,1.2,1.8,3,1.8,4.5
				c0,1.4-0.5,3.1-1.6,4.3C99,14,97,14.7,94.6,14.7C92.3,14.6,90.4,13.9,89.1,12.7z M92.1,5.6c-0.4,0.7-0.6,1.8-0.6,2.6
				c0,1.5,0.3,4,3.2,4c1.4,0,2.1-0.5,2.6-1.4c0.4-0.8,0.5-1.8,0.5-2.6c0-0.9-0.1-2-0.6-2.8S96,4.2,94.7,4.2
				C93.2,4.2,92.6,4.7,92.1,5.6z"/>
			<path class="st1" d="M115.2,4.4h-4.3v9.9h-4V4.4h-4.4V1.9h12.7C115.2,1.9,115.2,4.4,115.2,4.4z"/>
			<path class="st1" d="M121.2,4.3v2.5h6.5v2.3h-6.5v2.7h8.2v2.4h-12.3V1.9h12.3v2.4H121.2z"/>
			<path class="st1" d="M142.9,11.9v2.5H132V1.9h4v9.9L142.9,11.9L142.9,11.9z"/>
		</g>
	</g>
</g>
</svg>
