<?xml version="1.0" encoding="utf-8"?>
<!-- Generator: Adobe Illustrator 19.1.0, SVG Export Plug-In . SVG Version: 6.00 Build 0)  -->
<svg version="1.1" id="Layer_1" xmlns="http://www.w3.org/2000/svg" xmlns:xlink="http://www.w3.org/1999/xlink" x="0px" y="0px"
	 viewBox="0 0 154 132" enable-background="new 0 0 154 132" xml:space="preserve">
<g>
	<g>
		<g>
			<g>
				<g>
					<g>
						<path d="M2.8,100.4H0.7V86.7c0-1.4-0.1-2.8-0.2-4h2.2l0.1,2.6l0.1,0.1c1.2-2.2,3.2-3.2,5.5-3.2c5.8,0,6.2,5.1,6.2,7.2v11.1
							h-2.1V89c0-3.1-1.8-4.9-4.7-4.9c-3.5,0-5.1,2.9-5.1,6.1V100.4z"/>
						<path d="M20,82.7v17.7h-2.1V82.7H20z M20.2,77.6h-2.5V75h2.5V77.6z"/>
						<path d="M25.3,89.9l8.8-7.2H37l-9.3,7.6l9.9,10h-2.7l-9.5-9.6v9.6h-2.1V75h2.1V89.9z"/>
						<path d="M40.2,89.9l8.8-7.2h2.9l-9.3,7.6l9.8,10h-2.7l-9.5-9.6v9.6h-2.1V75h2.1V89.9z"/>
						<path d="M67.4,91.6c0,4.7-2.6,9.4-8.3,9.4c-5.6,0-8.2-4.7-8.2-9.4c0-4.7,2.6-9.4,8.2-9.4C64.8,82.2,67.4,86.9,67.4,91.6z
							 M59.1,84.1c-4.3,0-6,4.2-6,7.4c0,3.3,1.7,7.4,6,7.4c4.3,0,6-4.2,6-7.4C65.1,88.3,63.4,84.1,59.1,84.1z"/>
						<path d="M77.1,85.4L77.1,85.4c1.3-2.2,3.3-3.2,5.6-3.2c5.8,0,6.2,5.1,6.2,7.2v11.1h-2.1V89c0-3.1-1.8-4.9-4.7-4.9
							c-3.5,0-5.1,2.9-5.1,6.1v10.2H75V75h2.1V85.4z"/>
						<path d="M107.6,91.6c0,4.7-2.6,9.4-8.2,9.4c-5.7,0-8.3-4.7-8.3-9.4c0-4.7,2.6-9.4,8.3-9.4C105,82.2,107.6,86.9,107.6,91.6z
							 M99.4,84.1c-4.3,0-6,4.2-6,7.4c0,3.3,1.7,7.4,6,7.4c4.3,0,6-4.2,6-7.4C105.3,88.3,103.6,84.1,99.4,84.1z"/>
						<path d="M110.8,84.7h-3.5v-1.9h3.5v-3.8l2.1-0.9v4.7h4v1.9h-4v11.8c0,1.6,0.8,2.5,2.4,2.5c0.6,0,1.3,0,1.8-0.2v1.8
							c-0.7,0.2-1.5,0.3-2.2,0.3c-4.5,0-4.2-2.9-4.2-5.3V84.7z"/>
						<path d="M119.7,92.1c0.1,3.8,1.8,6.9,6.1,6.9c2.5,0,4.6-1.8,5.1-4.2h2.2c-1.1,4.2-3.7,6.2-8,6.2c-5.3,0-7.8-4.5-7.8-9.4
							c0-4.8,2.6-9.4,7.9-9.4c5.9,0,8.1,4.3,8.1,9.9H119.7z M131.1,90.1c-0.2-3.4-2.1-6-5.7-6c-3.5,0-5.3,2.9-5.6,6H131.1z"/>
						<path d="M137.8,100.4h-2.1V75h2.1V100.4z"/>
						<path d="M146.5,82.2c3.3,0,6.2,1.2,6.5,4.9h-2.3c-0.2-2.2-2.2-3-4.4-3c-2,0-4,0.8-4,2.9c0,2.6,3.4,2.4,8.2,4.1
							c1.8,0.6,3,2.2,3,4.1c0,4-3.7,5.8-7.4,5.8c-3.1,0-6.6-1.4-6.7-5.4h2.3c0.2,2.6,2.5,3.4,4.9,3.4c2.2,0,4.6-1.1,4.6-3.5
							c0-2.5-2.8-3-5.6-3.6c-2.8-0.7-5.6-1.5-5.6-4.8C140,83.5,143.4,82.2,146.5,82.2z"/>
						<path d="M19.5,112.5v13.2h-1.6v-13.2H19.5z M19.7,108.7h-1.8v-2h1.8V108.7z"/>
						<path d="M23.7,125.6h-1.6v-10.2c0-1-0.1-2.1-0.1-3h1.6l0.1,1.9l0.1,0.1c0.9-1.6,2.4-2.4,4.1-2.4c4.3,0,4.6,3.8,4.6,5.3v8.2H31
							v-8.5c0-2.3-1.3-3.6-3.5-3.6c-2.6,0-3.8,2.2-3.8,4.5V125.6z"/>
						<path d="M35.6,113.9h-2.6v-1.4h2.6v-2.8l1.6-0.7v3.5h3v1.4h-3v8.8c0,1.2,0.6,1.9,1.8,1.9c0.5,0,0.9,0,1.4-0.2v1.4
							c-0.5,0.1-1.1,0.2-1.6,0.2c-3.3,0-3.1-2.1-3.1-3.9V113.9z"/>
						<path d="M42.1,119.4c0.1,2.8,1.3,5.2,4.6,5.2c1.9,0,3.4-1.3,3.8-3.1h1.7c-0.8,3.1-2.8,4.6-6,4.6c-3.9,0-5.8-3.4-5.8-7
							c0-3.6,2-7,5.9-7c4.4,0,6,3.2,6,7.3H42.1z M50.6,118c-0.2-2.6-1.5-4.5-4.3-4.5c-2.6,0-3.9,2.2-4.1,4.5H50.6z"/>
						<path d="M55.7,125.7h-1.6v-10.2c0-1-0.1-2.1-0.1-3h1.6l0.1,1.9h0c0.5-1.3,1.7-2.3,3-2.3c0.5,0,1.1,0,1.6,0v1.5
							c-0.3,0-0.7-0.1-1-0.1c-2.3,0-3.6,1.7-3.6,4.2V125.7z"/>
						<path d="M63.3,125.6h-1.6v-10.2c0-1-0.1-2.1-0.1-3h1.6l0.1,1.9l0,0.1c0.9-1.6,2.4-2.4,4.1-2.4c4.3,0,4.6,3.8,4.6,5.3v8.2h-1.6
							v-8.5c0-2.3-1.3-3.6-3.5-3.6c-2.6,0-3.8,2.2-3.8,4.5V125.6z"/>
						<path d="M82.4,116.4c-0.2-2.2-1.3-2.8-3.1-2.8c-1.7,0-3,0.5-3.2,2.3h-1.7c0.4-2.7,2.4-3.7,4.9-3.7c2.9,0,4.7,1.3,4.7,4.4v6.2
							c0,1,0.1,2.1,0.1,3h-1.6l0-1.9h-0.1l-0.1,0.2c-0.6,1.1-2.3,2.2-4.1,2.2c-2.4,0-4.4-1.5-4.4-4.1c0-1.8,1.1-3.2,2.6-3.8
							c1.8-0.8,4-0.5,6-0.6V116.4z M78.5,124.6c3.4,0,4.1-2.8,3.9-5.6c-2.2,0.1-6.9-0.3-6.9,3C75.5,123.8,76.9,124.6,78.5,124.6z"/>
						<path d="M87.6,113.9H85v-1.4h2.6v-2.8l1.6-0.7v3.5h3v1.4h-3v8.8c0,1.2,0.6,1.9,1.8,1.9c0.5,0,1,0,1.4-0.2v1.4
							c-0.5,0.1-1.1,0.2-1.6,0.2c-3.3,0-3.2-2.1-3.2-3.9V113.9z"/>
						<path d="M95.7,112.5v13.2h-1.6v-13.2H95.7z M95.8,108.7H94v-2h1.8V108.7z"/>
						<path d="M109.7,119.1c0,3.5-1.9,7-6.1,7c-4.2,0-6.1-3.5-6.1-7c0-3.5,2-7,6.1-7C107.7,112.1,109.7,115.6,109.7,119.1z
							 M103.5,113.5c-3.2,0-4.4,3.1-4.4,5.5c0,2.4,1.2,5.5,4.4,5.5c3.2,0,4.4-3.1,4.4-5.5C108,116.6,106.7,113.5,103.5,113.5z"/>
						<path d="M113,125.6h-1.6v-10.2c0-1-0.1-2.1-0.1-3h1.6l0.1,1.9l0.1,0.1c0.9-1.6,2.4-2.4,4.1-2.4c4.3,0,4.7,3.8,4.7,5.3v8.2
							h-1.6v-8.5c0-2.3-1.3-3.6-3.5-3.6c-2.6,0-3.8,2.2-3.8,4.5V125.6z"/>
						<path d="M132.2,116.4c-0.2-2.2-1.3-2.8-3.1-2.8c-1.7,0-3,0.5-3.2,2.3h-1.7c0.4-2.7,2.4-3.7,4.9-3.7c2.9,0,4.7,1.3,4.7,4.4v6.2
							c0,1,0.1,2.1,0.1,3h-1.6l0-1.9h-0.1l-0.1,0.2c-0.6,1.1-2.3,2.2-4.1,2.2c-2.4,0-4.4-1.5-4.4-4.1c0-1.8,1.1-3.2,2.7-3.8
							c1.8-0.8,4-0.5,6-0.6V116.4z M128.3,124.6c3.4,0,4.1-2.8,3.9-5.6c-2.2,0.1-6.9-0.3-6.9,3C125.3,123.8,126.7,124.6,128.3,124.6
							z"/>
						<path d="M137.8,125.6h-1.6v-19h1.6V125.6z"/>
					</g>
				</g>
			</g>
		</g>
		<g>
			<path fill="#0072BC" d="M76.1,6c5.3,0,9.5,4.3,9.5,9.6c0,1.5-0.3,2.9-1,4.2c-0.8,1.7-1.1,1.7-2.9,4.3c-3.4,4.6-5.4,10.3-5.5,16.4
				h-0.4c-0.1-6.1-2.1-11.8-5.4-16.4c-1.9-2.6-2.1-2.6-2.9-4.3c-0.6-1.3-1-2.7-1-4.2C66.6,10.2,70.8,6,76.1,6"/>
			<path fill="#0072BC" d="M76.3,54.7c0-8.4,4.8-14,11.7-14c2.8,0,3.5,0.9,7.2,0.9c5.3,0,9.6-4.3,9.6-9.5c0-5.3-4.3-9.6-9.6-9.6
				c-9.1,0-17.7,11.4-19.1,28.5c-1.4-17.1-10-28.5-19.1-28.5c-5.3,0-9.6,4.3-9.6,9.6c0,5.3,4.3,9.5,9.6,9.5c3.7,0,4.4-0.9,7.2-0.9
				c6.9,0,11.7,5.6,11.7,14H76.3z"/>
			<path fill="#0072BC" d="M76.3,67.2c0-4.1,1.1-12.9,7-12.9c1.9,0,3.6,1.1,4.4,2.8c0.6,1.3,0.9,1.7,1.5,3.1
				c1.6,3.2,4.8,5.4,8.7,5.4c5.3,0,9.6-4.3,9.6-9.6c0-3.6-2.1-6.6-4.9-8.4c-2.9-1.8-6.4-2.7-10-2.7c-7.5,0-16.1,5.6-16.4,19.2
				c-0.2-13.7-8.9-19.2-16.4-19.2c-3.6,0-7.1,0.9-10,2.7c-2.9,1.8-4.9,4.8-4.9,8.4c0,5.3,4.3,9.6,9.6,9.6c3.8,0,7.1-2.2,8.6-5.4
				c0.7-1.4,0.9-1.7,1.5-3.1c0.7-1.6,2.4-2.8,4.4-2.8c5.8,0,7,8.8,7,12.9H76.3z"/>
		</g>
	</g>
</g>
</svg>
