<svg xmlns="http://www.w3.org/2000/svg" viewBox="0 0 135 40"><defs><style>.cls-1{fill:#a6a6a6;}.cls-10,.cls-2,.cls-3{fill:#fff;}.cls-2{stroke:#fff;stroke-width:0.2px;}.cls-4{fill:url(#linear-gradient);}.cls-5{fill:url(#linear-gradient-2);}.cls-6{fill:url(#linear-gradient-3);}.cls-7{fill:url(#linear-gradient-4);}.cls-8{opacity:0.2;}.cls-10,.cls-8,.cls-9{isolation:isolate;}.cls-9{opacity:0.12;}.cls-10{opacity:0.25;}</style><linearGradient id="linear-gradient" x1="-561.24" x2="-562.53" y1="434.11" y2="433.44" gradientTransform="matrix(13 0 0 -25 7323.9 10876.5)" gradientUnits="userSpaceOnUse"><stop offset="0" stop-color="#00a0ff"/><stop offset=".01" stop-color="#00a1ff"/><stop offset=".26" stop-color="#00beff"/><stop offset=".51" stop-color="#00d2ff"/><stop offset=".76" stop-color="#00dfff"/><stop offset="1" stop-color="#00e3ff"/></linearGradient><linearGradient id="linear-gradient-2" x1="-547.92" x2="-550.31" y1="408.74" y2="408.74" gradientTransform="matrix(10.15 0 0 -8.5 5601.25 3509.3)" gradientUnits="userSpaceOnUse"><stop offset="0" stop-color="#ffe000"/><stop offset=".41" stop-color="#ffbd00"/><stop offset=".78" stop-color="#ffa500"/><stop offset="1" stop-color="#ff9c00"/></linearGradient><linearGradient id="linear-gradient-3" x1="-571.67" x2="-573.03" y1="421.92" y2="420.15" gradientTransform="matrix(16.7 0 0 -12.89 9577.7 5475.18)" gradientUnits="userSpaceOnUse"><stop offset="0" stop-color="#ff3a44"/><stop offset="1" stop-color="#c31162"/></linearGradient><linearGradient id="linear-gradient-4" x1="-572.72" x2="-572.11" y1="422.52" y2="421.73" gradientTransform="matrix(16.7 0 0 -12.83 9577.7 5435.61)" gradientUnits="userSpaceOnUse"><stop offset="0" stop-color="#32a071"/><stop offset=".07" stop-color="#2da771"/><stop offset=".48" stop-color="#15cf74"/><stop offset=".8" stop-color="#06e775"/><stop offset="1" stop-color="#00f076"/></linearGradient></defs><title>google</title><g id="badge-icons"><g id="google-play-badge"><g id="artwork"><g id="Group"><path id="Shape" d="M130 40H5a5 5 0 0 1-5-5V5a5 5 0 0 1 5-5h125a5 5 0 0 1 5 5v30a5 5 0 0 1-5 5z"/><path id="Shape-2" d="M130 .8a4.23 4.23 0 0 1 4.2 4.2v30a4.23 4.23 0 0 1-4.2 4.2H5A4.23 4.23 0 0 1 .8 35V5A4.23 4.23 0 0 1 5 .8zm0-.8H5a5 5 0 0 0-5 5v30a5 5 0 0 0 5 5h125a5 5 0 0 0 5-5V5a5 5 0 0 0-5-5z" class="cls-1"/><g id="Shape-3"><path d="M47.4 10.2a2.72 2.72 0 0 1-.7 2 3.1 3.1 0 0 1-4.4-4.4 2.94 2.94 0 0 1 2.2-.9 2.66 2.66 0 0 1 1.2.3 2.18 2.18 0 0 1 .9.7l-.5.5a1.86 1.86 0 0 0-1.6-.7 2 2 0 0 0-1.6.7 2.06 2.06 0 0 0-.7 1.7 2.06 2.06 0 0 0 .7 1.7 2.57 2.57 0 0 0 1.6.7 2.2 2.2 0 0 0 1.7-.7 1.66 1.66 0 0 0 .5-1.2h-2.2v-.7h2.9zM52 7.7h-2.7v1.9h2.5v.7h-2.5v1.9H52v.8h-3.5V7H52v.7zM55.3 13h-.8V7.7h-1.7V7H57v.7h-1.7V13zM59.9 13V7h.8v6h-.8zM64.1 13h-.8V7.7h-1.7V7h4.1v.7H64V13h.1zM73.6 12.2a3.1 3.1 0 0 1-4.4-4.4 3.1 3.1 0 0 1 4.4 4.4zm-3.8-.5a2.36 2.36 0 0 0 1.6.7 2 2 0 0 0 1.6-.7 2.4 2.4 0 0 0 .7-1.7 2.06 2.06 0 0 0-.7-1.7 2.36 2.36 0 0 0-1.6-.7 2 2 0 0 0-1.6.7 2.4 2.4 0 0 0-.7 1.7 2.06 2.06 0 0 0 .7 1.7zM75.6 13V7h.9l2.9 4.7V7h.8v6h-.8l-3.1-4.9V13h-.7z" class="cls-2"/></g><path id="Shape-4" d="M68.1 21.8a4.2 4.2 0 0 0-4.3 4.3 4.27 4.27 0 0 0 4.3 4.3 4.2 4.2 0 0 0 4.3-4.3 4.15 4.15 0 0 0-4.3-4.3zm0 6.8a2.6 2.6 0 0 1 0-5.2 2.42 2.42 0 0 1 2.4 2.6 2.48 2.48 0 0 1-2.4 2.6zm-9.3-6.8a4.2 4.2 0 0 0-4.3 4.3 4.27 4.27 0 0 0 4.3 4.3 4.2 4.2 0 0 0 4.3-4.3 4.15 4.15 0 0 0-4.3-4.3zm0 6.8a2.6 2.6 0 0 1 0-5.2 2.42 2.42 0 0 1 2.4 2.6 2.48 2.48 0 0 1-2.4 2.6zm-11.1-5.5v1.8H52a3.78 3.78 0 0 1-1 2.3 4.43 4.43 0 0 1-3.3 1.3 4.66 4.66 0 0 1-4.7-4.8 4.72 4.72 0 0 1 4.7-4.8 5 5 0 0 1 3.3 1.3l1.3-1.3a6.4 6.4 0 0 0-4.5-1.8 6.6 6.6 0 1 0 0 13.2 5.75 5.75 0 0 0 4.6-1.9 6 6 0 0 0 1.6-4.2 3.75 3.75 0 0 0-.1-1.1zm45.4 1.4a3.9 3.9 0 0 0-3.6-2.7 4 4 0 0 0-4 4.3 4.18 4.18 0 0 0 4.2 4.3 4.1 4.1 0 0 0 3.5-1.9l-1.4-1a2.44 2.44 0 0 1-2.1 1.2 2.17 2.17 0 0 1-2.1-1.3l5.7-2.4zm-5.8 1.4a2.43 2.43 0 0 1 2.2-2.5 1.77 1.77 0 0 1 1.6.9zM82.6 30h1.9V17.5h-1.9zm-3-7.3a3.3 3.3 0 0 0-2.3-1 4.3 4.3 0 0 0-4.1 4.3 4.14 4.14 0 0 0 4.1 4.2 2.87 2.87 0 0 0 2.2-1h.1v.6a2.27 2.27 0 0 1-4.4 1l-1.6.7a4.13 4.13 0 0 0 3.8 2.5c2.2 0 4-1.3 4-4.4V22h-1.8v.7zm-2.2 5.9a2.6 2.6 0 0 1 0-5.2 2.62 2.62 0 0 1 0 5.2zm24.4-11.1h-4.5V30h1.9v-4.7h2.6a3.9 3.9 0 1 0 0-7.8zm.1 6h-2.7v-4.3h2.7a2.2 2.2 0 0 1 2.2 2.1 2.3 2.3 0 0 1-2.2 2.2zm11.5-1.8a3.36 3.36 0 0 0-3.3 1.9l1.7.7a1.77 1.77 0 0 1 1.7-.9 1.88 1.88 0 0 1 2 1.6v.1a4 4 0 0 0-1.9-.5c-1.8 0-3.6 1-3.6 2.8a2.93 2.93 0 0 0 3.1 2.8 2.8 2.8 0 0 0 2.4-1.2h.1v1h1.8v-4.8a3.78 3.78 0 0 0-4-3.5zm-.2 6.9c-.6 0-1.5-.3-1.5-1.1 0-1 1.1-1.3 2-1.3a3.87 3.87 0 0 1 1.7.4 2.33 2.33 0 0 1-2.2 2zm10.5-6.6l-2.1 5.4h-.1l-2.2-5.4h-2l3.3 7.6-1.9 4.2h1.9l5.1-11.8zm-16.8 8h1.9V17.5h-1.9z" class="cls-3"/><g id="Shape-5"><path d="M10.4 7.5a2 2 0 0 0-.5 1.4V31a2 2 0 0 0 .5 1.4l.1.1 12.4-12.4v-.2L10.4 7.5z" class="cls-4"/><path d="M27 24.3l-4.1-4.1v-.3l4.1-4.1.1.1 4.9 2.8c1.4.8 1.4 2.1 0 2.9l-5 2.7z" class="cls-5"/><path d="M27.1 24.2L22.9 20 10.4 32.5c.5.5 1.2.5 2.1.1l14.6-8.4" class="cls-6"/><path d="M27.1 15.8L12.5 7.5a1.62 1.62 0 0 0-2.1.1L22.9 20z" class="cls-7"/><path d="M27 24.1l-14.5 8.2a1.64 1.64 0 0 1-2 0l-.1.1.1.1a1.64 1.64 0 0 0 2 0L27 24.1z" class="cls-8"/><path d="M10.4 32.3a2 2 0 0 1-.4-1.4v.1a2 2 0 0 0 .5 1.4v-.1zM32 21.3l-5 2.8.1.1 4.9-2.8a1.66 1.66 0 0 0 1-1.4c0 .5-.4.9-1 1.3z" class="cls-9"/><path d="M12.5 7.6L32 18.7c.6.4 1 .8 1 1.3a1.66 1.66 0 0 0-1-1.4L12.5 7.5C11.1 6.7 10 7.4 10 9v.1c0-1.6 1.1-2.3 2.5-1.5z" class="cls-10"/></g></g></g></g></g></svg>