<svg xmlns="http://www.w3.org/2000/svg" viewBox="0 0 135 40"><defs><style>.cls-1{fill:#a6a6a6;}.cls-2{fill:#fff;}</style></defs><title>apple</title><g id="badge-icons"><g id="Download_on_the_App_Store_Badge_US-UK_135x40"><g id="US_UK_Download_on_the"><g id="Group"><path id="Shape" d="M130.2 40H4.73A4.74 4.74 0 0 1 0 35.27V4.73A4.73 4.73 0 0 1 4.73 0H130.2a4.8 4.8 0 0 1 4.8 4.73v30.54a4.8 4.8 0 0 1-4.8 4.73z" class="cls-1"/><path id="Shape-2" d="M134 35.27a3.83 3.83 0 0 1-3.83 3.83H4.73A3.83 3.83 0 0 1 .9 35.27V4.72A3.84 3.84 0 0 1 4.72.9H130.2A3.83 3.83 0 0 1 134 4.7v30.54z"/><g id="Shape-3"><path d="M30.13 19.78a5.8 5.8 0 0 1 2.76-4.86 5.94 5.94 0 0 0-4.7-2.53c-2-.22-3.86 1.17-4.87 1.17s-2.57-1.16-4.23-1.12a6.23 6.23 0 0 0-5.24 3.2c-2.27 3.92-.58 9.7 1.6 12.86 1.1 1.56 2.35 3.3 4 3.24s2.23-1 4.2-1 2.5 1 4.2 1 2.84-1.56 3.9-3.13a12.83 12.83 0 0 0 1.77-3.6 5.6 5.6 0 0 1-3.4-5.22zM26.93 10.3a5.7 5.7 0 0 0 1.3-4.08 5.8 5.8 0 0 0-3.75 1.94 5.43 5.43 0 0 0-1.34 3.94 4.8 4.8 0 0 0 3.8-1.8z" class="cls-2"/></g><g id="Shape-4"><path d="M53.65 31.5h-2.28l-1.24-3.9H45.8l-1.17 3.9H42.4l4.3-13.3h2.64zm-3.9-5.5l-1.1-3.47q-.2-.58-.65-2.53-.2.85-.63 2.5l-1.2 3.5zM64.66 26.6a5.45 5.45 0 0 1-1.32 3.86 3.87 3.87 0 0 1-2.94 1.26 2.94 2.94 0 0 1-2.72-1.36v5.05H55.5V25.08q0-1.54-.08-3.16h1.88l.12 1.53a3.8 3.8 0 0 1 6.07-.38 5.3 5.3 0 0 1 1.16 3.54zm-2.17.07a4 4 0 0 0-.64-2.3A2.18 2.18 0 0 0 60 23.4a2.22 2.22 0 0 0-1.43.53 2.43 2.43 0 0 0-.84 1.37 2.8 2.8 0 0 0-.1.65v1.6a2.56 2.56 0 0 0 .64 1.77 2.13 2.13 0 0 0 1.67.72 2.18 2.18 0 0 0 1.88-.93 4.08 4.08 0 0 0 .67-2.43zM75.7 26.6a5.45 5.45 0 0 1-1.32 3.86 3.86 3.86 0 0 1-2.94 1.26 2.94 2.94 0 0 1-2.72-1.36v5.05h-2.18V25.08q0-1.54-.08-3.16h1.88l.12 1.53a3.8 3.8 0 0 1 6.07-.38 5.3 5.3 0 0 1 1.17 3.54zm-2.17.07a4 4 0 0 0-.63-2.3 2.18 2.18 0 0 0-1.9-.96 2.22 2.22 0 0 0-1.43.53 2.42 2.42 0 0 0-.84 1.37 2.85 2.85 0 0 0-.1.65v1.6a2.57 2.57 0 0 0 .64 1.77A2.13 2.13 0 0 0 71 30a2.18 2.18 0 0 0 1.88-.93 4.08 4.08 0 0 0 .65-2.4zM88 27.77a3.55 3.55 0 0 1-1.18 2.76 5.24 5.24 0 0 1-3.62 1.16 6.35 6.35 0 0 1-3.45-.84l.5-1.78a5.84 5.84 0 0 0 3.07.85 2.9 2.9 0 0 0 1.88-.54 1.78 1.78 0 0 0 .67-1.46 1.85 1.85 0 0 0-.55-1.36 5.14 5.14 0 0 0-1.84-1Q80 24.25 80 21.74A3.38 3.38 0 0 1 81.25 19a4.83 4.83 0 0 1 3.26-1 6.46 6.46 0 0 1 3 .63l-.5 1.74a5.24 5.24 0 0 0-2.55-.6 2.58 2.58 0 0 0-1.76.54 1.58 1.58 0 0 0-.54 1.2 1.63 1.63 0 0 0 .6 1.3 6.9 6.9 0 0 0 1.95 1 6.57 6.57 0 0 1 2.54 1.63 3.38 3.38 0 0 1 .76 2.34zM95.1 23.5h-2.36v4.67q0 1.78 1.24 1.78a3.8 3.8 0 0 0 .95-.1l.06 1.62a4.83 4.83 0 0 1-1.67.24 2.56 2.56 0 0 1-2-.76 3.78 3.78 0 0 1-.7-2.6v-4.83h-1.4v-1.6h1.4v-1.75l2.08-.63v2.4h2.36zM105.7 26.63a5.26 5.26 0 0 1-1.27 3.63 4.5 4.5 0 0 1-3.52 1.46 4.3 4.3 0 0 1-3.35-1.4 5.1 5.1 0 0 1-1.25-3.53 5.2 5.2 0 0 1 1.3-3.66 4.47 4.47 0 0 1 3.47-1.42 4.38 4.38 0 0 1 3.4 1.4 5 5 0 0 1 1.22 3.5zm-2.22.07a4.32 4.32 0 0 0-.57-2.28 2.1 2.1 0 0 0-1.9-1.15 2.14 2.14 0 0 0-2 1.15 4.4 4.4 0 0 0-.57 2.32A4.3 4.3 0 0 0 99 29a2.18 2.18 0 0 0 3.85 0 4.33 4.33 0 0 0 .63-2.3zM112.62 23.78a3.7 3.7 0 0 0-.67-.06 2 2 0 0 0-1.74.85 3.2 3.2 0 0 0-.52 1.9v5h-2.13v-6.58q0-1.67-.08-3h1.86l.08 1.83h.07a3.28 3.28 0 0 1 1.07-1.52 2.58 2.58 0 0 1 1.54-.5 3.42 3.42 0 0 1 .53 0zM122.16 26.25a5 5 0 0 1-.08 1h-6.4a2.78 2.78 0 0 0 .93 2.17 3.17 3.17 0 0 0 2.1.67 7.07 7.07 0 0 0 2.6-.46l.32 1.48a8 8 0 0 1-3.22.6 4.66 4.66 0 0 1-3.5-1.32 4.85 4.85 0 0 1-1.28-3.52 5.5 5.5 0 0 1 1.2-3.6 4.1 4.1 0 0 1 3.34-1.55 3.58 3.58 0 0 1 3.14 1.54 5.2 5.2 0 0 1 .86 2.98zm-2-.55a2.9 2.9 0 0 0-.4-1.64 1.86 1.86 0 0 0-1.7-.9 2 2 0 0 0-1.7.88 3.18 3.18 0 0 0-.64 1.66h4.44z" class="cls-2"/></g><g id="Shape-5"><path d="M49.05 10A3.28 3.28 0 0 1 48 12.67a4.2 4.2 0 0 1-2.78.82 12.9 12.9 0 0 1-1.53-.1V7a11.3 11.3 0 0 1 1.8-.14 3.9 3.9 0 0 1 2.58.75 3 3 0 0 1 .97 2.4zm-1.1 0a2.13 2.13 0 0 0-2.4-2.37 4.44 4.44 0 0 0-.83.07v4.9a5.53 5.53 0 0 0 .7 0 2.48 2.48 0 0 0 1.87-.6 2.68 2.68 0 0 0 .65-2zM54.9 11a2.6 2.6 0 0 1-.6 1.78 2.22 2.22 0 0 1-1.74.72 2.1 2.1 0 0 1-1.65-.7 2.5 2.5 0 0 1-.6-1.73 2.56 2.56 0 0 1 .63-1.8 2.2 2.2 0 0 1 1.7-.7 2.16 2.16 0 0 1 1.68.7 2.5 2.5 0 0 1 .6 1.73zm-1.08 0a2.13 2.13 0 0 0-.28-1 1 1 0 0 0-.94-.56 1.05 1.05 0 0 0-1 .56 2.16 2.16 0 0 0-.28 1.14 2.13 2.13 0 0 0 .28 1.12 1.06 1.06 0 0 0 1 .56 1 1 0 0 0 .94-.57 2.12 2.12 0 0 0 .28-1.18zM62.76 8.72l-1.47 4.7h-1l-.62-2a15.32 15.32 0 0 1-.38-1.5 11.15 11.15 0 0 1-.38 1.5l-.65 2h-1l-1.4-4.7H57l.55 2.28q.2.8.32 1.5.12-.58.4-1.5l.66-2.24h.85l.64 2.2q.23.8.38 1.55a14.83 14.83 0 0 1 .32-1.54l.57-2.2h1zM68.2 13.43h-1v-2.7q0-1.25-.95-1.25a1 1 0 0 0-.76.34 1.22 1.22 0 0 0-.3.8v2.8h-1v-3.35q0-.62 0-1.35h.8v.74a1.5 1.5 0 0 1 .54-.57 1.77 1.77 0 0 1 1-.28 1.5 1.5 0 0 1 1.1.43 2.07 2.07 0 0 1 .54 1.56v2.83zM71.1 13.43h-1.06V6.56h1.05v6.87zM77.26 11a2.6 2.6 0 0 1-.62 1.78 2.22 2.22 0 0 1-1.73.72 2.1 2.1 0 0 1-1.64-.7 2.5 2.5 0 0 1-.6-1.73 2.56 2.56 0 0 1 .62-1.8 2.2 2.2 0 0 1 1.7-.7 2.16 2.16 0 0 1 1.68.7 2.5 2.5 0 0 1 .6 1.73zm-1.1 0a2.13 2.13 0 0 0-.27-1 1 1 0 0 0-.95-.56A1 1 0 0 0 74 10a2.16 2.16 0 0 0-.28 1.14A2.13 2.13 0 0 0 74 12.2a1.06 1.06 0 0 0 1 .57 1 1 0 0 0 .94-.57 2.1 2.1 0 0 0 .23-1.13zM82.33 13.43h-.94l-.1-.54a1.6 1.6 0 0 1-1.37.64 1.42 1.42 0 0 1-1.08-.43 1.34 1.34 0 0 1-.37-1 1.46 1.46 0 0 1 .72-1.3 3.75 3.75 0 0 1 2-.46v-.04q0-.93-1-.93a2.2 2.2 0 0 0-1.23.35L78.8 9a3 3 0 0 1 1.6-.4q1.86 0 1.86 2v1.73a7.36 7.36 0 0 0 .07 1.1zm-1.1-1.62v-.72q-1.72 0-1.72.95a.7.7 0 0 0 .2.55.73.73 0 0 0 .52.18 1.06 1.06 0 0 0 .64-.22.9.9 0 0 0 .38-.74zM88.28 13.43h-.93v-.76a1.57 1.57 0 0 1-1.5.86 1.77 1.77 0 0 1-1.43-.67 2.6 2.6 0 0 1-.56-1.74 2.73 2.73 0 0 1 .6-1.85 1.88 1.88 0 0 1 1.47-.66 1.4 1.4 0 0 1 1.33.65v-2.7h1v5.62q0 .68.02 1.26zm-1.1-2v-.8a1.54 1.54 0 0 0 0-.32 1.2 1.2 0 0 0-.37-.62 1 1 0 0 0-.7-.26 1.08 1.08 0 0 0-.9.47 2 2 0 0 0-.35 1.18 1.86 1.86 0 0 0 .32 1.13 1.08 1.08 0 0 0 .92.48 1 1 0 0 0 .82-.4 1.3 1.3 0 0 0 .28-.83zM97.25 11a2.6 2.6 0 0 1-.62 1.78 2.2 2.2 0 0 1-1.73.72 2.1 2.1 0 0 1-1.65-.7 2.5 2.5 0 0 1-.6-1.73 2.56 2.56 0 0 1 .62-1.8 2.2 2.2 0 0 1 1.7-.7 2.15 2.15 0 0 1 1.68.7 2.5 2.5 0 0 1 .6 1.73zm-1.1 0a2.13 2.13 0 0 0-.27-1.12 1 1 0 0 0-.94-.56 1.05 1.05 0 0 0-1 .56 2.16 2.16 0 0 0-.28 1.14 2.13 2.13 0 0 0 .28 1.12 1.07 1.07 0 0 0 1.9 0 2.13 2.13 0 0 0 .32-1.07zM102.88 13.43h-1v-2.7q0-1.25-1-1.25a.94.94 0 0 0-.76.34 1.2 1.2 0 0 0-.3.8v2.8h-1v-3.35q0-.62 0-1.35h.93v.74a1.53 1.53 0 0 1 .54-.57 1.77 1.77 0 0 1 1-.28 1.5 1.5 0 0 1 1.1.43 2.07 2.07 0 0 1 .53 1.56v2.83zM109.94 9.5h-1.15v2.3c0 .57.2.86.6.86a1.85 1.85 0 0 0 .47 0v.8a2.35 2.35 0 0 1-.8.12 1.25 1.25 0 0 1-1-.38 1.85 1.85 0 0 1-.36-1.27V9.5h-.68v-.78h.7v-.86l1-.3V8.7h1.14v.8zM115.48 13.43h-1v-2.68q0-1.27-.95-1.27a1 1 0 0 0-1 .73 1.32 1.32 0 0 0 0 .4v2.83h-1V6.56h1V9.4a1.58 1.58 0 0 1 1.42-.78A1.46 1.46 0 0 1 115 9a2.15 2.15 0 0 1 .53 1.58v2.8zM121.2 10.85a2.53 2.53 0 0 1 0 .47H118a1.37 1.37 0 0 0 .46 1.07 1.56 1.56 0 0 0 1 .32 3.47 3.47 0 0 0 1.27-.22l.16.73a4 4 0 0 1-1.6.3 2.28 2.28 0 0 1-1.7-.65 2.38 2.38 0 0 1-.63-1.73 2.7 2.7 0 0 1 .58-1.78 2 2 0 0 1 1.65-.76 1.75 1.75 0 0 1 1.54.77 2.52 2.52 0 0 1 .47 1.48zm-1-.27a1.4 1.4 0 0 0-.2-.8.92.92 0 0 0-.82-.44 1 1 0 0 0-.83.43 1.6 1.6 0 0 0-.3.8z" class="cls-2"/></g></g></g></g></g></svg>